<svg width="166" height="40" viewBox="0 0 166 40" fill="none" xmlns="http://www.w3.org/2000/svg">
<path d="M20 40C31.0457 40 40 31.0457 40 20C40 8.9543 31.0457 0 20 0C8.9543 0 0 8.9543 0 20C0 31.0457 8.9543 40 20 40Z" fill="#800080"/>
<path d="M12.9092 11.3252C13.8532 11.3252 14.7158 11.4554 15.4971 11.7158C16.2783 11.9762 16.9375 12.2773 17.4746 12.6191V15.9639C16.8887 15.6058 16.262 15.2721 15.5947 14.9629C14.9274 14.6536 14.1706 14.499 13.3242 14.499C12.901 14.499 12.4779 14.5641 12.0547 14.6943C11.6478 14.8245 11.306 15.0199 11.0293 15.2803C10.7689 15.5407 10.6387 15.8743 10.6387 16.2812C10.6387 16.8184 10.8747 17.2253 11.3467 17.502C11.8187 17.7786 12.3965 18.0553 13.0801 18.332L15.082 19.1621C16.2214 19.6504 17.0596 20.2445 17.5967 20.9443C18.1338 21.6442 18.4023 22.4417 18.4023 23.3369C18.4023 24.3135 18.1175 25.1761 17.5479 25.9248C16.9945 26.6572 16.2458 27.235 15.3018 27.6582C14.374 28.0814 13.3405 28.293 12.2012 28.293C11.2409 28.293 10.3213 28.1302 9.44238 27.8047C8.56348 27.4792 7.7985 27.0804 7.14746 26.6084V23.2637C7.86361 23.7845 8.65299 24.224 9.51562 24.582C10.3783 24.9401 11.2979 25.1191 12.2744 25.1191C12.958 25.1191 13.5439 24.9889 14.0322 24.7285C14.5205 24.4518 14.7646 24.0449 14.7646 23.5078C14.7646 23.0846 14.5612 22.7428 14.1543 22.4824C13.7637 22.2057 13.3324 21.9779 12.8604 21.7988L10.3457 20.8223C9.07617 20.334 8.21354 19.6992 7.75781 18.918C7.31836 18.1204 7.09863 17.2415 7.09863 16.2812C7.09863 15.2884 7.36719 14.4258 7.9043 13.6934C8.45768 12.9447 9.17383 12.3669 10.0527 11.96C10.9316 11.5368 11.8838 11.3252 12.9092 11.3252ZM30.6094 24.9482V28H21.6982V24.9482H24.457V14.6943H21.6982V11.6426H30.6094V14.6943H27.8506V24.9482H30.6094Z" fill="white"/>
<path d="M49.9092 11.3252C50.8532 11.3252 51.7158 11.4554 52.4971 11.7158C53.2783 11.9762 53.9375 12.2773 54.4746 12.6191V15.9639C53.8887 15.6058 53.262 15.2721 52.5947 14.9629C51.9274 14.6536 51.1706 14.499 50.3242 14.499C49.901 14.499 49.4779 14.5641 49.0547 14.6943C48.6478 14.8245 48.306 15.0199 48.0293 15.2803C47.7689 15.5407 47.6387 15.8743 47.6387 16.2812C47.6387 16.8184 47.8747 17.2253 48.3467 17.502C48.8187 17.7786 49.3965 18.0553 50.0801 18.332L52.082 19.1621C53.2214 19.6504 54.0596 20.2445 54.5967 20.9443C55.1338 21.6442 55.4023 22.4417 55.4023 23.3369C55.4023 24.3135 55.1175 25.1761 54.5479 25.9248C53.9945 26.6572 53.2458 27.235 52.3018 27.6582C51.374 28.0814 50.3405 28.293 49.2012 28.293C48.2409 28.293 47.3213 28.1302 46.4424 27.8047C45.5635 27.4792 44.7985 27.0804 44.1475 26.6084V23.2637C44.8636 23.7845 45.653 24.224 46.5156 24.582C47.3783 24.9401 48.2979 25.1191 49.2744 25.1191C49.958 25.1191 50.5439 24.9889 51.0322 24.7285C51.5205 24.4518 51.7646 24.0449 51.7646 23.5078C51.7646 23.0846 51.5612 22.7428 51.1543 22.4824C50.7637 22.2057 50.3324 21.9779 49.8604 21.7988L47.3457 20.8223C46.0762 20.334 45.2135 19.6992 44.7578 18.918C44.3184 18.1204 44.0986 17.2415 44.0986 16.2812C44.0986 15.2884 44.3672 14.4258 44.9043 13.6934C45.4577 12.9447 46.1738 12.3669 47.0527 11.96C47.9316 11.5368 48.8838 11.3252 49.9092 11.3252ZM63.166 15.3535C63.8333 15.3535 64.5088 15.5081 65.1924 15.8174C65.876 16.1266 66.4456 16.5417 66.9014 17.0625V15.6709H70.002V28H66.9014V25.9248C66.5433 26.5921 66.0225 27.1699 65.3389 27.6582C64.6553 28.1302 63.8577 28.3662 62.9463 28.3662C61.9535 28.3662 61.0339 28.1139 60.1875 27.6094C59.3574 27.1048 58.6901 26.3724 58.1855 25.4121C57.681 24.4518 57.4287 23.2881 57.4287 21.9209C57.4287 20.5537 57.681 19.3818 58.1855 18.4053C58.7064 17.4287 59.3981 16.68 60.2607 16.1592C61.1396 15.6221 62.1081 15.3535 63.166 15.3535ZM63.8008 18.3809C63.1497 18.3809 62.5882 18.5518 62.1162 18.8936C61.6605 19.2191 61.3024 19.6504 61.042 20.1875C60.7816 20.7246 60.6514 21.3024 60.6514 21.9209C60.6514 22.8486 60.9281 23.638 61.4814 24.2891C62.0511 24.9401 62.7998 25.2656 63.7275 25.2656C64.2809 25.2656 64.7936 25.1191 65.2656 24.8262C65.7539 24.5332 66.1445 24.1263 66.4375 23.6055C66.7467 23.0684 66.9014 22.4255 66.9014 21.6768V19.9189C66.4619 19.4469 65.9818 19.0726 65.4609 18.7959C64.9564 18.5192 64.403 18.3809 63.8008 18.3809ZM78.6934 15.3535C79.3607 15.3535 80.0361 15.5081 80.7197 15.8174C81.4033 16.1266 81.973 16.5417 82.4287 17.0625V15.6709H85.5293V28H82.4287V25.9248C82.0706 26.5921 81.5498 27.1699 80.8662 27.6582C80.1826 28.1302 79.3851 28.3662 78.4736 28.3662C77.4808 28.3662 76.5612 28.1139 75.7148 27.6094C74.8848 27.1048 74.2174 26.3724 73.7129 25.4121C73.2083 24.4518 72.9561 23.2881 72.9561 21.9209C72.9561 20.5537 73.2083 19.3818 73.7129 18.4053C74.2337 17.4287 74.9255 16.68 75.7881 16.1592C76.667 15.6221 77.6354 15.3535 78.6934 15.3535ZM79.3281 18.3809C78.6771 18.3809 78.1156 18.5518 77.6436 18.8936C77.1878 19.2191 76.8298 19.6504 76.5693 20.1875C76.3089 20.7246 76.1787 21.3024 76.1787 21.9209C76.1787 22.8486 76.4554 23.638 77.0088 24.2891C77.5785 24.9401 78.3271 25.2656 79.2549 25.2656C79.8083 25.2656 80.321 25.1191 80.793 24.8262C81.2812 24.5332 81.6719 24.1263 81.9648 23.6055C82.2741 23.0684 82.4287 22.4255 82.4287 21.6768V19.9189C81.9893 19.4469 81.5091 19.0726 80.9883 18.7959C80.4837 18.5192 79.9303 18.3809 79.3281 18.3809ZM94.3428 11.3252C95.2868 11.3252 96.1494 11.4554 96.9307 11.7158C97.7119 11.9762 98.3711 12.2773 98.9082 12.6191V15.9639C98.3223 15.6058 97.6956 15.2721 97.0283 14.9629C96.361 14.6536 95.6042 14.499 94.7578 14.499C94.3346 14.499 93.9115 14.5641 93.4883 14.6943C93.0814 14.8245 92.7396 15.0199 92.4629 15.2803C92.2025 15.5407 92.0723 15.8743 92.0723 16.2812C92.0723 16.8184 92.3083 17.2253 92.7803 17.502C93.2523 17.7786 93.8301 18.0553 94.5137 18.332L96.5156 19.1621C97.6549 19.6504 98.4932 20.2445 99.0303 20.9443C99.5674 21.6442 99.8359 22.4417 99.8359 23.3369C99.8359 24.3135 99.5511 25.1761 98.9814 25.9248C98.4281 26.6572 97.6794 27.235 96.7354 27.6582C95.8076 28.0814 94.7741 28.293 93.6348 28.293C92.6745 28.293 91.7549 28.1302 90.876 27.8047C89.9971 27.4792 89.2321 27.0804 88.5811 26.6084V23.2637C89.2972 23.7845 90.0866 24.224 90.9492 24.582C91.8118 24.9401 92.7314 25.1191 93.708 25.1191C94.3916 25.1191 94.9775 24.9889 95.4658 24.7285C95.9541 24.4518 96.1982 24.0449 96.1982 23.5078C96.1982 23.0846 95.9948 22.7428 95.5879 22.4824C95.1973 22.2057 94.766 21.9779 94.2939 21.7988L91.7793 20.8223C90.5098 20.334 89.6471 19.6992 89.1914 18.918C88.752 18.1204 88.5322 17.2415 88.5322 16.2812C88.5322 15.2884 88.8008 14.4258 89.3379 13.6934C89.8913 12.9447 90.6074 12.3669 91.4863 11.96C92.3652 11.5368 93.3174 11.3252 94.3428 11.3252ZM112.043 24.9482V28H103.132V24.9482H105.891V14.6943H103.132V11.6426H112.043V14.6943H109.284V24.9482H112.043ZM119.367 15.6709V17.4287C119.742 16.9242 120.246 16.4521 120.881 16.0127C121.532 15.5732 122.272 15.3535 123.103 15.3535C124.356 15.3535 125.406 15.7767 126.252 16.623C127.098 17.4694 127.521 18.7389 127.521 20.4316V28H124.421L124.396 20.8467C124.396 20.0166 124.193 19.3981 123.786 18.9912C123.396 18.5843 122.85 18.3809 122.15 18.3809C121.597 18.3809 121.076 18.5599 120.588 18.918C120.116 19.276 119.709 19.6992 119.367 20.1875V28H116.267V15.6709H119.367ZM135.188 12.082V15.6709H138.605V18.2588H135.188V23.5811C135.188 24.1344 135.31 24.5739 135.554 24.8994C135.814 25.2087 136.197 25.3633 136.701 25.3633C137.141 25.3633 137.515 25.3145 137.824 25.2168C138.15 25.1191 138.451 24.9808 138.728 24.8018V27.2676C138.418 27.5768 138.028 27.8372 137.556 28.0488C137.1 28.2604 136.522 28.3662 135.822 28.3662C134.715 28.3662 133.812 28.0163 133.112 27.3164C132.429 26.6003 132.087 25.6237 132.087 24.3867V18.2588H129.865V16.6719C130.646 16.3952 131.363 15.8743 132.014 15.1094C132.681 14.3444 133.21 13.3353 133.601 12.082H135.188ZM149.665 19.1377C149.144 18.8447 148.599 18.6982 148.029 18.6982C147.313 18.6982 146.719 18.9342 146.247 19.4062C145.775 19.862 145.36 20.4316 145.002 21.1152V28H141.901V15.6709H145.002V17.9902C145.425 17.2578 145.922 16.6475 146.491 16.1592C147.077 15.6709 147.736 15.4268 148.469 15.4268C148.908 15.4268 149.307 15.5 149.665 15.6465V19.1377ZM157.795 15.3535C158.999 15.3535 160.098 15.6465 161.091 16.2324C162.084 16.8021 162.881 17.5833 163.483 18.5762C164.102 19.5527 164.411 20.6514 164.411 21.8721C164.411 23.0928 164.102 24.1914 163.483 25.168C162.881 26.1445 162.084 26.9258 161.091 27.5117C160.098 28.0814 158.999 28.3662 157.795 28.3662C156.607 28.3662 155.508 28.0814 154.499 27.5117C153.506 26.9258 152.709 26.1445 152.106 25.168C151.504 24.1914 151.203 23.0928 151.203 21.8721C151.203 20.6514 151.504 19.5527 152.106 18.5762C152.709 17.5833 153.506 16.8021 154.499 16.2324C155.508 15.6465 156.607 15.3535 157.795 15.3535ZM157.795 18.3564C157.209 18.3564 156.664 18.4948 156.159 18.7715C155.655 19.0482 155.248 19.4469 154.938 19.9678C154.646 20.4886 154.499 21.1234 154.499 21.8721C154.499 22.6208 154.646 23.2555 154.938 23.7764C155.248 24.2972 155.655 24.696 156.159 24.9727C156.664 25.2331 157.209 25.3633 157.795 25.3633C158.381 25.3633 158.926 25.2331 159.431 24.9727C159.935 24.696 160.342 24.2972 160.651 23.7764C160.961 23.2555 161.115 22.6208 161.115 21.8721C161.115 21.1234 160.961 20.4886 160.651 19.9678C160.342 19.4469 159.935 19.0482 159.431 18.7715C158.926 18.4948 158.381 18.3564 157.795 18.3564Z" fill="white"/>
</svg>
